<svg xmlns="http://www.w3.org/2000/svg" viewBox="-3150 -2800 6300 6300">
<path opacity="1.000000" stroke="none" d="M 807.21 3229.245 C -348.79 3229.245 -1502.79 3229.245 -2656.79 3229.245 C -2656.79 1261.246 -2656.79 -706.754 -2656.79 -2674.753 C -688.791 -2674.754 1279.208 -2674.754 3247.208 -2674.754 C 3247.208 -706.756 3247.208 1261.243 3247.209 3229.243 C 2434.543 3229.245 1621.876 3229.245 807.21 3229.245 M -1400.909 1849.105 C -1400.909 1849.105 -1400.641 1849.537 -1399.143 1851.619 C -1395.847 1852.18 -1392.55 1852.741 -1388.877 1853.087 C -1388.877 1853.087 -1388.626 1853.442 -1386.917 1855.602 C -1382.408 1856.185 -1377.9 1856.768 -1372.99 1857.103 C -1372.99 1857.103 -1372.716 1857.487 -1372.56 1860.22 C -1371.725 1862.002 -1371.257 1864.114 -1369.999 1865.516 C -1345.622 1892.69 -1316.436 1914.761 -1290.451 1940.239 C -1289.603 1941.07 -1288.001 1941.132 -1285.957 1945.038 C -1285.775 1953.693 -1285.877 1962.365 -1285.34 1970.999 C -1284.649 1982.097 -1278.491 1989.793 -1268.314 1993.479 C -1262.837 1995.464 -1256.672 1995.948 -1250.771 1996.282 C -1238.161 1996.996 -1225.521 1997.171 -1212.447 2000.219 C -1211.278 2001.781 -1210.357 2003.637 -1208.904 2004.863 C -1184.012 2025.863 -1156.848 2043.796 -1130.246 2062.45 C -1110.679 2076.17 -1090.546 2089.148 -1070.135 2101.585 C -1038.374 2120.936 -1006.879 2140.915 -973.981 2158.169 C -917.392 2187.848 -860.595 2217.336 -801.748 2242.348 C -756.537 2261.565 -710.466 2278.769 -664.676 2296.605 C -658.576 2298.982 -651.874 2299.813 -644.484 2304.696 C -643.131 2319.259 -641.945 2333.839 -640.389 2348.38 C -637.813 2372.444 -631.067 2395.274 -618.894 2416.284 C -594.741 2457.975 -559.66 2485.87 -512.836 2497.831 C -440.779 2516.238 -368.597 2534.159 -296.386 2551.956 C -269.459 2558.592 -242.347 2558.36 -215.417 2551.342 C -173.17 2540.333 -139.498 2517.006 -114.752 2480.972 C -105.736 2467.844 -96.885 2454.603 -84.682 2441.43 C -73.533 2442.798 -62.363 2444.01 -51.243 2445.576 C -40.115 2447.145 -29.036 2449.062 -17.938 2450.841 C -4.884 2452.933 8.117 2456.305 21.234 2456.835 C 39.165 2457.559 56.589 2463.458 74.709 2461.486 C 76.621 2461.277 78.631 2462.085 80.606 2462.334 C 88.468 2463.324 96.322 2464.405 104.204 2465.204 C 109.49 2465.741 115.226 2464.71 120.039 2466.416 C 129.187 2469.659 138.416 2469.025 147.693 2469.234 C 153.022 2469.353 158.714 2468.193 163.62 2469.672 C 181.951 2475.197 200.65 2472.47 219.182 2473.293 C 225.146 2473.557 231.113 2473.945 237.051 2474.546 C 244.278 2475.278 251.474 2477.059 258.686 2477.075 C 340.662 2477.259 422.638 2477.201 504.614 2477.165 C 509.269 2477.163 514.309 2477.881 518.502 2476.388 C 529.56 2472.456 540.849 2473.497 552.115 2473.25 C 566.033 2472.944 579.937 2474.043 593.715 2469.889 C 599.853 2468.038 606.969 2469.654 613.603 2469.167 C 621.503 2468.588 629.36 2467.432 637.238 2466.546 C 641.191 2466.101 645.142 2465.612 649.106 2465.294 C 667.595 2463.814 686.169 2463.046 704.561 2460.786 C 730.795 2457.563 756.817 2452.524 783.08 2449.63 C 808.128 2446.869 832.782 2442.203 857.477 2437.527 C 908.868 2427.794 960.261 2418.167 1011.034 2405.392 C 1060.576 2392.927 1110.073 2380.346 1158.739 2364.774 C 1191.027 2354.442 1223.389 2344.22 1255.183 2332.499 C 1290.692 2319.406 1325.825 2305.218 1360.698 2290.501 C 1396.198 2275.52 1431.539 2260.061 1466.285 2243.424 C 1497.476 2228.49 1527.819 2211.775 1558.431 2195.647 C 1575.491 2186.658 1592.693 2177.853 1609.212 2167.936 C 1654.179 2140.94 1699.086 2113.804 1742.013 2083.595 C 1771.321 2062.971 1800.432 2042.064 1829.496 2021.095 C 1862.863 1997.024 1895.103 1971.561 1926.372 1944.765 C 1949.572 1924.885 1972.394 1904.614 1994.517 1883.596 C 2011.365 1867.591 2027.004 1850.389 2042.426 1832.893 C 2061.733 1810.99 2081.442 1789.473 2099.93 1766.823 C 2122.178 1739.566 2143.736 1711.796 2163.467 1682.696 C 2184.344 1651.906 2204.944 1620.892 2224.492 1589.252 C 2241.947 1561.002 2258.834 1532.3 2274.145 1502.848 C 2305.141 1443.23 2334.74 1382.906 2359.646 1320.391 C 2376.61 1277.813 2393.828 1235.326 2408.029 1191.733 C 2420.983 1151.968 2433.692 1112.105 2445.473 1071.981 C 2454.618 1040.83 2462.174 1009.212 2470.414 977.797 C 2471.361 974.187 2470.226 971.3 2467.672 966.549 C 2475.106 956.396 2482.653 946.324 2489.951 936.075 C 2509.231 908.997 2526.97 880.997 2542.624 851.603 C 2550.563 836.696 2542.226 815.121 2524.406 810.077 C 2518.687 808.458 2512.996 806.737 2507.244 801.669 C 2507.581 797.036 2507.573 792.347 2508.314 787.78 C 2511.809 766.266 2515.836 744.834 2519.036 723.278 C 2521.751 704.991 2523.13 686.537 2526.455 668.292 C 2528.941 654.66 2530.703 640.725 2530.945 626.892 C 2531.327 604.969 2537.625 583.506 2535.474 561.443 C 2535.288 559.532 2535.708 557.365 2536.479 555.592 C 2540.083 547.303 2538.996 538.572 2539.195 529.963 C 2539.44 519.316 2537.887 508.262 2540.269 498.126 C 2543.078 486.18 2543.058 474.421 2543.156 462.505 C 2543.333 441.191 2543.234 419.874 2543.276 398.558 C 2543.288 392.564 2542.056 386.174 2543.698 380.649 C 2548.953 362.951 2546.681 344.969 2547.083 327.098 C 2547.323 316.454 2548.712 305.364 2546.316 295.249 C 2543.016 281.325 2543.44 267.544 2543.299 253.642 C 2543.09 232.994 2543.233 212.342 2543.142 191.693 C 2543.122 187.041 2543.842 182.002 2542.34 177.815 C 2538.613 167.421 2539.684 156.81 2539.156 146.221 C 2537.936 121.731 2537.514 97.118 2534.514 72.833 C 2533.051 60.992 2531.157 49.263 2530.982 37.302 C 2530.953 35.339 2530.249 33.395 2529.987 31.424 C 2527.719 14.403 2525.36 -2.606 2523.271 -19.649 C 2521.5 -34.095 2520.533 -48.654 2518.348 -63.031 C 2515.073 -84.576 2511.057 -106.009 2507.325 -127.484 C 2503.818 -147.666 2500.394 -167.863 2496.7 -188.011 C 2493.718 -204.275 2490.665 -220.537 2487.134 -236.689 C 2483.469 -253.452 2479.192 -270.081 2476.352 -289.167 C 2483.349 -296.272 2490.105 -303.636 2497.407 -310.412 C 2505.663 -318.073 2514.404 -325.211 2522.943 -332.565 C 2530.978 -339.484 2539.151 -346.248 2547.031 -353.34 C 2553.453 -359.12 2559.698 -365.123 2565.677 -371.359 C 2567.89 -373.667 2569.843 -376.72 2570.681 -379.773 C 2575.327 -396.694 2568.099 -410.039 2550.84 -415.282 C 2542.68 -417.761 2533.998 -418.549 2525.535 -419.999 C 2495.553 -425.137 2465.564 -430.23 2435.354 -438.454 C 2434.951 -441.749 2435.031 -445.194 2434.068 -448.316 C 2427.211 -470.524 2420.627 -492.834 2413.019 -514.788 C 2402.361 -545.543 2390.474 -575.874 2379.863 -606.645 C 2363.598 -653.814 2343.65 -699.495 2323.586 -745.065 C 2306.162 -784.639 2286.355 -823.168 2267.38 -862.051 C 2265.124 -866.674 2261.473 -870.615 2258.456 -878.583 C 2259.125 -899.852 2260.928 -921.06 2262.185 -942.275 C 2264.858 -987.412 2263.559 -1032.702 2266.349 -1077.925 C 2269.341 -1126.38 2267.025 -1174.994 2270.063 -1223.586 C 2273.257 -1274.663 2271.312 -1326.02 2274.872 -1377.188 C 2276.717 -1403.698 2275.76 -1430.281 2278.073 -1456.898 C 2281.062 -1491.281 2279.67 -1525.97 2282.545 -1560.516 C 2285.521 -1596.276 2286.024 -1632.24 2287.681 -1668.112 C 2287.834 -1671.417 2288.749 -1674.686 2288.922 -1677.993 C 2289.857 -1695.913 2291.777 -1713.876 2291.196 -1731.754 C 2290.673 -1747.892 2282.323 -1760.451 2267.855 -1768.928 C 2253.486 -1777.347 2238.159 -1776.701 2223.184 -1773.651 C 2183.498 -1765.567 2143.968 -1756.68 2104.51 -1747.53 C 2055.282 -1736.115 2006.717 -1722.252 1958.36 -1707.557 C 1902.327 -1690.529 1846.824 -1672.013 1792.196 -1650.942 C 1763.654 -1639.933 1735.426 -1628.108 1704.223 -1617.775 C 1676.723 -1632.584 1649.171 -1647.336 1619.786 -1658.141 C 1594.869 -1667.303 1569.965 -1676.689 1540.996 -1681.771 C 1529.967 -1683.728 1518.94 -1685.702 1507.906 -1687.637 C 1496.92 -1689.564 1485.926 -1691.451 1473.936 -1695.97 C 1456.525 -1710.823 1435.431 -1719.733 1415.542 -1730.099 C 1352.419 -1762.997 1288.58 -1794.455 1222.603 -1821.538 C 1181.394 -1838.453 1139.913 -1854.538 1097.868 -1869.086 C 1057.694 -1882.987 1017.118 -1895.795 976.406 -1908.045 C 936.429 -1920.074 895.857 -1929.968 855.226 -1939.645 C 830.074 -1945.636 804.806 -1950.753 779.412 -1955.477 C 754.053 -1960.194 728.857 -1965.782 703.502 -1970.519 C 686.608 -1973.675 669.602 -1976.322 652.568 -1978.617 C 638.144 -1980.56 623.519 -1981.094 609.141 -1983.288 C 588.208 -1986.481 567.396 -1990.428 546.135 -1990.817 C 544.144 -1990.853 541.967 -1990.667 540.198 -1991.38 C 529.312 -1995.768 517.923 -1994.597 506.647 -1994.756 C 502.648 -1994.813 498.345 -1993.943 494.703 -1995.116 C 477.096 -2000.786 459.03 -1998.05 441.159 -1998.8 C 435.861 -1999.022 430.569 -1999.518 425.292 -2000.061 C 417.406 -2000.872 409.54 -2002.586 401.66 -2002.616 C 343.667 -2002.842 285.673 -2002.883 227.679 -2002.663 C 210.464 -2002.598 193.041 -2004.754 176.144 -1999.103 C 173.725 -1998.294 170.849 -1998.837 168.185 -1998.779 C 150.289 -1998.387 132.228 -2000.435 114.67 -1994.98 C 112.834 -1994.409 110.689 -1994.889 108.696 -1994.756 C 88.201 -1993.38 67.59 -1992.905 47.246 -1990.323 C 26.919 -1987.743 6.73 -1984.325 -13.709 -1982.186 C -38.66 -1979.574 -63.436 -1974.845 -88.099 -1970.062 C -121.232 -1963.635 -154.344 -1956.951 -187.18 -1949.175 C -242.072 -1936.175 -296.313 -1920.601 -349.796 -1902.738 C -393.878 -1888.015 -437.366 -1871.534 -480.201 -1853.327 C -522.438 -1835.375 -564.482 -1817.058 -605.42 -1796.306 C -620.239 -1788.795 -634.628 -1780.438 -649.256 -1772.546 C -667.986 -1762.44 -687.088 -1752.974 -705.452 -1742.244 C -754.795 -1713.412 -802.659 -1682.214 -849.881 -1650.046 C -854.118 -1647.16 -857.187 -1642.559 -864.496 -1638.656 C -880.376 -1639.585 -896.501 -1636.716 -912.116 -1641.738 C -944.719 -1641.691 -977.323 -1641.828 -1009.922 -1641.473 C -1018.484 -1641.38 -1027.021 -1639.681 -1035.584 -1638.864 C -1053.407 -1637.163 -1071.34 -1636.261 -1089.043 -1633.736 C -1110.005 -1630.746 -1130.828 -1626.672 -1151.613 -1622.567 C -1188.142 -1615.354 -1223.85 -1604.846 -1259.052 -1592.967 C -1282.932 -1584.908 -1305.891 -1574.136 -1329.322 -1564.727 C -1371.471 -1547.803 -1410.715 -1525.436 -1448.898 -1501.082 C -1474.685 -1484.635 -1499.467 -1466.86 -1523.519 -1447.875 C -1551.745 -1425.596 -1577.7 -1400.884 -1604.168 -1376.709 C -1611.956 -1369.597 -1617.699 -1360.291 -1625.187 -1352.799 C -1654.638 -1323.335 -1678.072 -1289.693 -1696.132 -1252.254 C -1712.429 -1218.469 -1724.222 -1183.438 -1725.106 -1145.432 C -1725.197 -1141.505 -1726.916 -1137.616 -1727.016 -1133.688 C -1727.302 -1122.467 -1727.351 -1111.229 -1727.059 -1100.009 C -1726.94 -1095.416 -1725.163 -1090.863 -1725.071 -1086.274 C -1724.56 -1060.785 -1718.48 -1036.276 -1711.151 -1012.188 C -1698.725 -971.343 -1681.715 -932.43 -1659.526 -895.798 C -1640.576 -864.513 -1621.629 -833.288 -1597.886 -805.267 C -1595.467 -802.413 -1594.562 -798.275 -1595.381 -793.532 C -1601.825 -789.293 -1605.024 -782.651 -1608.176 -776.031 C -1629.333 -731.591 -1652.626 -688.227 -1673.066 -643.387 C -1688.503 -609.521 -1703.185 -575.375 -1717.397 -541.022 C -1731.093 -507.917 -1744.667 -474.698 -1756.52 -440.907 C -1784.634 -360.759 -1810.448 -279.86 -1831.287 -197.458 C -1838.434 -169.199 -1846.762 -141.151 -1852.128 -112.552 C -1857.859 -82.008 -1865.528 -51.891 -1870.395 -21.125 C -1874.932 7.554 -1880.823 36.055 -1884.926 64.841 C -1886.512 75.967 -1887.693 87.17 -1889.795 98.198 C -1893.266 116.404 -1896.718 134.569 -1896.876 153.196 C -1896.904 156.488 -1897.61 159.775 -1898.028 163.062 C -1898.942 170.26 -1899.958 177.447 -1900.764 184.657 C -1901.279 189.27 -1901.357 193.931 -1901.87 198.544 C -1902.744 206.41 -1903.947 214.24 -1904.737 222.113 C -1905.2 226.737 -1904.022 231.809 -1905.512 235.992 C -1909.91 248.341 -1908.374 260.983 -1908.826 273.551 C -1909.088 280.837 -1909.528 288.125 -1910.193 295.384 C -1910.856 302.611 -1912.344 309.781 -1912.699 317.014 C -1913.899 341.498 -1910.097 366.218 -1916.513 390.481 C -1917.503 394.225 -1916.744 398.437 -1916.754 402.433 C -1916.779 412.424 -1916.583 422.42 -1916.893 432.402 C -1917.01 436.166 -1918.274 439.894 -1919.106 444.094 C -1925.232 444.446 -1930.548 444.414 -1935.748 445.174 C -1938.861 445.63 -1941.792 447.325 -1947.274 449.787 C -1948.445 450.416 -1949.658 450.977 -1950.781 451.683 C -1973.373 465.883 -1979.752 481.071 -1974.108 507.21 C -1971.726 518.238 -1969.369 529.271 -1966.928 540.287 C -1942.08 652.408 -1917.288 764.542 -1892.302 876.634 C -1886.534 902.511 -1880.086 928.238 -1874.565 955.342 C -1874.43 956.393 -1873.891 957.159 -1873.091 960.949 C -1870.683 970.66 -1868.276 980.371 -1866.481 991.353 C -1866.377 992.387 -1865.863 993.142 -1865.139 996.852 C -1859.429 1023.349 -1853.909 1049.889 -1847.944 1076.329 C -1843.59 1095.629 -1838.649 1114.798 -1834.559 1135.339 C -1834.423 1136.387 -1833.882 1137.147 -1833.126 1140.853 C -1827.548 1166.688 -1822.151 1192.563 -1816.334 1218.343 C -1811.835 1238.286 -1806.811 1258.11 -1802.605 1279.333 C -1802.458 1280.398 -1801.902 1281.172 -1801.127 1284.875 C -1797.069 1303.606 -1793.137 1322.365 -1788.926 1341.063 C -1780.503 1378.466 -1771.928 1415.835 -1763.572 1456.289 C -1757.231 1484.874 -1750.913 1513.465 -1744.541 1542.043 C -1739.33 1565.418 -1734.395 1588.861 -1728.702 1612.119 C -1723.756 1632.328 -1710.318 1644.022 -1689.827 1647.271 C -1683.943 1648.204 -1677.896 1648.276 -1671.917 1648.404 C -1643.281 1649.018 -1614.637 1649.331 -1586.009 1650.175 C -1578.112 1650.408 -1570.259 1652.098 -1561.229 1655.883 C -1537.365 1695.614 -1513.491 1735.339 -1489.639 1775.078 C -1472.119 1804.267 -1448.017 1826.284 -1417.55 1841.401 C -1414.59 1842.87 -1411.727 1844.534 -1407.558 1847.912 C -1405.491 1848.389 -1403.424 1848.866 -1400.909 1849.105 Z" style="fill: rgba(255, 255, 255, 0);"></path>
</svg>