<svg xmlns="http://www.w3.org/2000/svg" viewBox="0 0 240 264"  xmlns:v="https://vecta.io/nano"><defs><linearGradient x1=".191%" y1="50.028%" x2="100.185%" y2="50.028%" id="A"><stop stop-color="#f7b3b4" offset="0%"/><stop stop-color="#f5a1a2" offset="8.531%"/><stop stop-color="#f27a7b" offset="28.55%"/><stop stop-color="#f16b6c" offset="39.04%"/></linearGradient><linearGradient x1="49.745%" y1=".025%" x2="50.07%" y2="100.047%" id="B"><stop stop-color="#252e65" offset="0%"/><stop stop-color="#263067" offset="20.88%"/><stop stop-color="#2a366e" offset="28.4%"/><stop stop-color="#314279" offset="33.76%"/><stop stop-color="#3a528a" offset="38.1%"/><stop stop-color="#4667a0" offset="41.81%"/><stop stop-color="#5681bb" offset="45.04%"/><stop stop-color="#5e8fca" offset="46.52%"/><stop stop-color="#5c8bc5" offset="56.04%"/><stop stop-color="#567eb5" offset="67.85%"/><stop stop-color="#4b699c" offset="80.81%"/><stop stop-color="#425585" offset="90.37%"/></linearGradient><linearGradient x1="-29.696%" y1="45.334%" x2="129.609%" y2="54.713%" id="C"><stop stop-color="#5e8fca" offset="0%"/><stop stop-color="#537cb6" offset="9.61%"/><stop stop-color="#3f5a93" offset="29.27%"/><stop stop-color="#31427a" offset="47.8%"/><stop stop-color="#28336a" offset="64.59%"/><stop stop-color="#252e65" offset="78.07%"/></linearGradient><linearGradient x1="-39.599%" y1="45.757%" x2="139.717%" y2="54.273%" id="D"><stop stop-color="#5e8fca" offset="0%"/><stop stop-color="#537cb6" offset="9.61%"/><stop stop-color="#3f5a93" offset="29.27%"/><stop stop-color="#31427a" offset="47.8%"/><stop stop-color="#28336a" offset="64.59%"/><stop stop-color="#252e65" offset="78.07%"/></linearGradient><linearGradient x1="49.468%" y1=".034%" x2="49.825%" y2="100.06%" id="E"><stop stop-color="#252e65" offset="21.93%"/><stop stop-color="#28336a" offset="26.36%"/><stop stop-color="#31427a" offset="31.88%"/><stop stop-color="#3f5a93" offset="37.97%"/><stop stop-color="#537cb6" offset="44.43%"/><stop stop-color="#5e8fca" offset="47.59%"/><stop stop-color="#252e65" offset="100%"/></linearGradient><linearGradient x1="45.419%" y1="1.972%" x2="45.528%" y2="103.887%" id="F"><stop stop-color="#252e65" offset="21.93%"/><stop stop-color="#28336a" offset="35.41%"/><stop stop-color="#31427a" offset="52.2%"/><stop stop-color="#3f5a93" offset="70.73%"/><stop stop-color="#537cb6" offset="90.39%"/><stop stop-color="#5e8fca" offset="100%"/></linearGradient><linearGradient x1="49.696%" y1="-.023%" x2="50.025%" y2="99.922%" id="G"><stop stop-color="#252e65" offset="0%"/><stop stop-color="#263067" offset="20.88%"/><stop stop-color="#2a366e" offset="28.4%"/><stop stop-color="#314279" offset="33.76%"/><stop stop-color="#3a528a" offset="38.1%"/><stop stop-color="#4667a0" offset="41.81%"/><stop stop-color="#5681bb" offset="45.04%"/><stop stop-color="#5e8fca" offset="46.52%"/><stop stop-color="#5c8bc5" offset="54.42%"/><stop stop-color="#567eb5" offset="64.21%"/><stop stop-color="#4b699c" offset="74.95%"/><stop stop-color="#425585" offset="82.89%"/></linearGradient><linearGradient x1="49.98%" y1=".016%" x2="50.001%" y2="99.863%" id="H"><stop stop-color="#252e65" offset="8.021%"/></linearGradient><linearGradient x1="-5.935%" y1="8.002%" x2="105.618%" y2="92.184%" id="I"><stop stop-color="#5e8fca" offset="0%"/><stop stop-color="#537cb6" offset="9.61%"/><stop stop-color="#3f5a93" offset="29.27%"/><stop stop-color="#31427a" offset="47.8%"/><stop stop-color="#28336a" offset="64.59%"/><stop stop-color="#252e65" offset="78.07%"/></linearGradient><linearGradient x1="-19.16%" y1="8.249%" x2="119.696%" y2="91.853%" id="J"><stop stop-color="#5e8fca" offset="0%"/><stop stop-color="#537cb6" offset="9.61%"/><stop stop-color="#3f5a93" offset="29.27%"/><stop stop-color="#31427a" offset="47.8%"/><stop stop-color="#28336a" offset="64.59%"/><stop stop-color="#252e65" offset="78.07%"/></linearGradient><linearGradient x1="-.114%" y1="50.035%" x2="99.971%" y2="50.016%" id="K"><stop stop-color="#252e65" offset="21.93%"/><stop stop-color="#293369" offset="41.65%"/><stop stop-color="#344376" offset="66.14%"/><stop stop-color="#425585" offset="86.63%"/></linearGradient><linearGradient x1="32.314%" y1="-.246%" x2="61.51%" y2="106.82%" id="L"><stop stop-color="#5e8fca" offset="0%"/><stop stop-color="#537cb6" offset="9.61%"/><stop stop-color="#3f5a93" offset="29.27%"/><stop stop-color="#31427a" offset="47.8%"/><stop stop-color="#28336a" offset="64.59%"/><stop stop-color="#252e65" offset="78.07%"/></linearGradient><linearGradient x1="49.359%" y1="-.405%" x2="51.785%" y2="99.477%" id="M"><stop stop-color="#5e8fca" offset="0%"/><stop stop-color="#537cb6" offset="9.61%"/><stop stop-color="#3f5a93" offset="29.27%"/><stop stop-color="#31427a" offset="47.8%"/><stop stop-color="#28336a" offset="64.59%"/><stop stop-color="#252e65" offset="78.07%"/></linearGradient><linearGradient x1="12.602%" y1="4.589%" x2="86.405%" y2="95.554%" id="N"><stop stop-color="#5e8fca" offset="0%"/><stop stop-color="#537cb6" offset="3.62%"/><stop stop-color="#3f5a93" offset="11.03%"/><stop stop-color="#31427a" offset="18.01%"/><stop stop-color="#28336a" offset="24.33%"/><stop stop-color="#252e65" offset="29.41%"/></linearGradient><linearGradient x1="35.415%" y1="21.96%" x2="69.569%" y2="86.948%" id="O"><stop stop-color="#5e8cc6" offset="0%"/><stop stop-color="#5278b0" offset="13.14%"/><stop stop-color="#476499" offset="30.47%"/><stop stop-color="#3e5689" offset="49.35%"/><stop stop-color="#3a4e80" offset="70.73%"/><stop stop-color="#384b7d" offset="100%"/></linearGradient><linearGradient x1="49.853%" y1="-.184%" x2="49.894%" y2="100.364%" id="P"><stop stop-color="#5e8fca" offset="0%"/><stop stop-color="#537cb6" offset="9.61%"/><stop stop-color="#3f5a93" offset="29.27%"/><stop stop-color="#31427a" offset="47.8%"/><stop stop-color="#28336a" offset="64.59%"/><stop stop-color="#252e65" offset="78.07%"/></linearGradient><linearGradient x1="-38.594%" y1="18.822%" x2="138.478%" y2="81.459%" id="Q"><stop stop-color="#f48f90" offset="22.99%"/><stop stop-color="#ef4849" offset="100%"/></linearGradient><linearGradient x1="-.029%" y1="50.196%" x2="99.913%" y2="50.196%" id="R"><stop stop-color="#f7b3b4" offset="0%"/><stop stop-color="#f5a1a2" offset="8.531%"/><stop stop-color="#f27a7b" offset="28.55%"/><stop stop-color="#f16b6c" offset="39.04%"/></linearGradient><linearGradient x1=".336%" y1="49.596%" x2="100.586%" y2="49.596%" id="S"><stop stop-color="#f7b3b4" offset="0%"/><stop stop-color="#f5a1a2" offset="8.531%"/><stop stop-color="#f27a7b" offset="28.55%"/><stop stop-color="#f16b6c" offset="39.04%"/></linearGradient><linearGradient x1="-.066%" y1="50.192%" x2="99.878%" y2="50.192%" id="T"><stop stop-color="#f7b3b4" offset="0%"/><stop stop-color="#f5a1a2" offset="8.531%"/><stop stop-color="#f27a7b" offset="28.55%"/><stop stop-color="#f16b6c" offset="39.04%"/></linearGradient></defs><g fill-rule="evenodd"><path d="M151.887 144.41c-1.577 3.272-3.493 6.318-5.633 9.139l2.478 6.205a4.05 4.05 0 0 1 0 2.82c-.112.113-.112.339-.225.452l-.676 1.58-7.55-6.206-9.577-1.692.676-1.58c.113-.113.113-.338.226-.451a4.23 4.23 0 0 1 2.14-1.805l6.31-2.144c.676-3.384 1.803-6.882 3.155-10.266l-20.62-3.61 1.24-2.708c.563-1.241 1.24-2.031 2.479-2.482l23.211-4.852 5.521-11.959 3.268-2.143c.789-.564 1.915-.677 3.042-.113 1.014.451 1.69 1.354 1.803 2.37l.45 3.835-5.52 11.959 11.492 20.646c.451 1.241.338 2.257-.225 3.498l-1.24 2.707-16.225-13.2zm7.888-28.769c-.79-.338-1.803-.226-2.254.451l-1.127 1.58 4.17 1.918.45-1.918c.113-.79-.45-1.693-1.24-2.031z" fill="url(#A)" fill-rule="nonzero"/><path d="M30.873 42.42S-2.704 100.186.225 145.539s27.831 56.636 39.888 54.831c-1.69-3.046-15.775-93.64-15.775-93.64S24 69.722 38.761 43.21l-7.888-.79z" fill="url(#B)"/><path d="M58.817 192.472c.676 4.287-1.69 8.349-5.296 8.913-3.718.677-7.211-2.37-8-6.657l-14.197-84.051c-.676-4.287 1.69-8.349 5.296-8.913 3.718-.677 7.211 2.37 8 6.657l14.197 84.05z" fill="url(#C)"/><path d="M45.972 196.533c.45 2.708-.676 5.19-2.592 5.416-1.915.338-4.394-1.58-4.845-4.287L24.338 110c-.45-2.708.676-5.19 2.592-5.415 1.915-.339 3.83 1.58 4.281 4.287l14.76 87.661z" fill="url(#D)"/><path d="M22.76 58.103C13.07 78.411-1.69 114.852.339 145.539c2.479 37.57 19.944 51.784 32.676 54.492-1.127-3.61-6.422-21.887-15.211-73.22-5.634-32.38-.45-55.057 4.958-68.708z" fill="url(#E)"/><path d="M30.873 42.421l-.788 1.467c.563-1.016.9-1.467.788-1.467z" fill="url(#F)"/><path d="M116.056 4.738V4.4S68.62 8.236 38.536 43.549c0 0 2.027 3.497 6.196.451 4.17-2.933 26.141-27.528 69.972-29.333v.112c44.057 0 66.817 26.626 71.437 29.108 3.605 1.918 6.197-.79 6.197-.79-27.268-31.59-68.169-37.569-76.282-38.359z" fill="#425585"/><path d="M200 42.082s33.803 57.877 31.099 103.23-27.493 56.75-39.55 55.057c1.69-3.046 15.324-93.64 15.324-93.64s1.24-34.298-14.535-63.406l7.662-1.24z" fill="url(#G)"/><path d="M116.056 0c-.112 0-64.901 2.595-85.183 42.42.338 1.918 7.662 1.129 7.662 1.129C66.141 12.185 112.563 9.026 115.718 8.8c3.38-.113 49.014 3.159 76.62 34.41 0 0 7.324.79 7.662-1.128C177.127 6.77 134.085 1.015 116.056 0z" fill="url(#H)"/><path d="M172.732 192.359c-.676 4.287 1.69 8.349 5.409 8.913s7.211-2.37 8-6.77L200 110.339c.676-4.287-1.69-8.348-5.408-8.912s-7.212 2.369-8 6.769l-13.86 84.164z" fill="url(#I)"/><path d="M185.577 196.308c-.45 2.707.677 5.19 2.592 5.415 1.916.339 4.394-1.58 4.845-4.287l13.747-87.662c.45-2.707-.676-5.19-2.592-5.415-1.915-.338-3.831 1.58-4.282 4.287l-14.31 87.662z" fill="url(#J)"/><path d="M208.225 57.877c9.803 20.308 24.79 56.636 22.874 87.323-2.254 37.57-19.719 51.897-32.451 54.605 1.127-3.61 6.31-21.887 14.873-73.22 5.409-32.493.113-55.17-5.296-68.708z" fill="url(#K)"/><path d="M239.324 182.318c0 3.949-3.268 7.108-7.211 7.108l-14.648-.226c-3.944 0-.226-2.933-.226-6.882v-3.497c0-3.95 3.268-7.108 7.212-7.108h7.662c3.943 0 7.21 3.159 7.21 7.108v3.497z" fill="url(#L)"/><path d="M220.507 182.995c-1.465 4.061-3.268 7.108-4.169 6.77l-1.69-.565c-.902-.338-.45-3.836.901-7.897l1.24-3.61c1.465-4.062 3.267-7.108 4.169-6.77l1.69.564c.901.339.45 3.836-.902 7.898l-1.239 3.61z" fill="url(#M)"/><path d="M235.155 197.774a5.293 5.293 0 1 1-10.592 0V184.8a5.293 5.293 0 0 1 5.296-5.303c2.93 0 5.296 2.37 5.296 5.303v12.974z" fill="url(#N)"/><path d="M129.014 260.728c-5.972 0-12.282-.225-18.817-.677-2.479-.225-4.394-2.369-4.169-4.851s2.366-4.4 4.845-4.174c89.465 6.092 105.465-32.831 113.24-51.447.563-1.24 1.014-2.482 1.464-3.497 1.015-2.256 3.719-3.385 5.972-2.37s3.38 3.611 2.366 5.98a52.815 52.815 0 0 0-1.352 3.385c-4.056 9.815-10.817 26.174-28.732 38.81-17.803 12.523-42.93 18.841-74.817 18.841z" fill="url(#O)"/><path d="M127.324 255.426c0 4.174-3.38 7.559-7.55 7.559h-15.549c-4.169 0-7.549-3.385-7.549-7.56s3.38-7.558 7.55-7.558h15.549c4.169 0 7.549 3.384 7.549 7.559z" fill="url(#P)"/><path d="M111.775 111.918l.45-5.19.338-7.446 7.775.113 7.324-.113c-.338 5.415-.563 9.703-.563 12.636-3.719 0-6.198-.113-7.324-.113-2.029 0-4.62 0-8 .113zm1.69-18.615l.901-31.139c3.042 0 5.634.113 7.662.113 1.578 0 4.057 0 7.324-.113-.45 4.513-1.352 14.78-2.479 31.139-2.479 0-4.507-.113-5.972-.113-2.253 0-4.732.113-7.436.113z" fill="url(#Q)" fill-rule="nonzero"/><path d="M79.324 122.524l-1.127-4.062c-.225-.79-.338-1.58-.338-2.144v-1.692l.451-1.805a19.2 19.2 0 0 1 1.014-2.482l1.69-3.723 1.352-2.934c.226-.564.226-.902.338-1.24s.113-.565.113-.903c0-.226-.113-.451-.113-.79-.338-1.128-1.239-1.805-2.704-1.918-1.352-.113-3.155.113-5.408.903-3.043 1.128-6.423 2.933-10.028 5.754l-.79-5.529c-.112-.677-.225-1.353-.337-2.369-.113-.902-.338-2.143-.676-3.61 4.62-2.37 8.901-4.287 12.845-5.641 2.704-.903 5.07-1.58 7.436-1.918 2.254-.339 4.395-.339 6.423.113 1.915.451 3.606 1.128 4.958 2.256 1.352 1.016 2.253 2.37 2.817 3.949.225.677.45 1.354.45 2.03.113.678.113 1.467.113 2.144s-.113 1.467-.338 2.482c-.225.903-.45 1.918-.901 2.82-.25.772-.552 1.526-.902 2.257-.225.564-.789 1.58-1.577 3.046s-1.352 2.595-1.69 3.385-.677 1.58-.79 2.256c-.225.677-.225 1.354-.225 2.031s.113 1.692.338 2.933c-2.253.677-4.281 1.354-5.971 2.031l-6.423 2.37z" fill="url(#R)"/><path d="M82.704 137.303l-1.014-4.062-1.464-5.528c-.113-.225-.226-.902-.564-1.805l6.873-2.256 6.648-2.37 1.803 6.544 1.352 4.739-6.648 2.256-6.986 2.482z" fill="url(#S)"/><path d="M98.93 152.195l-7.55 11.282c-.225.338-.676.564-1.126.564l-13.634.113c-1.127 0-1.69 1.24-1.014 2.143l8.45 10.718a1.57 1.57 0 0 1 .226 1.241l-4.057 12.975a1.36 1.36 0 0 0 1.69 1.692l12.733-4.738c.45-.113.901-.113 1.24.112l11.042 7.898c.901.677 2.14 0 2.14-1.128l-.45-13.652c0-.45.225-.902.563-1.128l10.93-8.123c.901-.677.676-2.03-.451-2.37l-13.07-3.722a1.224 1.224 0 0 1-.902-.903l-4.394-12.861c-.338-.903-1.803-1.129-2.366-.113z" fill="url(#T)"/></g></svg>